  0
SECTION
  2
HEADER
  9
$EXTMIN
 10
-0.127000
 20
-0.139000
  9
$EXTMAX
 10
0.605000
 20
1.005000
  9
$LIMMIN
 10
-0.127000
 20
-0.139000
  9
$LIMMAX
 10
0.605000
 20
1.005000
  9
$FILLMODE
 70
  1
  0
ENDSEC
  0
SECTION
  2
TABLES
  0
TABLE
  2
LTYPE
 70
  1
  0
LTYPE
  2
CONTINUOUS
 70
 64
  3
Solid line
 72
 65
 73
  0
 40
0.0
  0
ENDTAB
  0
TABLE
  2
LAYER
 70
 1
  0
LAYER
  2
0
 70
  0
 62
7
  6
CONTINUOUS
  0
LAYER
  2
gg1
 70
  0
 62
1
  6
CONTINUOUS
  0
ENDTAB
  0
TABLE
  2
STYLE
 70
  1
  0
STYLE
  2
STANDARD
 70
  0
 40
0.0
 41
1.0
 50
0.0
 71
  0
 42
0.2
  3
txt
  4

  0
ENDTAB
  0
ENDSEC
  0
SECTION
  2
BLOCKS
  0
BLOCK
  8
0
  2
D10
 70
64
 10
0.0
 20
0.0
  3
D10
  0
CIRCLE
  8
0
 10
0.000000
 20
0.000000
 40
0.005000
 0
ENDBLK
  8
0
  0
BLOCK
  8
0
  2
D11
 70
64
 10
0.0
 20
0.0
  3
D11
  0
CIRCLE
  8
0
 10
0.000000
 20
0.000000
 40
0.002500
 0
ENDBLK
  8
0
  0
BLOCK
  8
0
  2
D12
 70
64
 10
0.0
 20
0.0
  3
D12
  0
CIRCLE
  8
0
 10
0.000000
 20
0.000000
 40
0.003000
 0
ENDBLK
  8
0
  0
ENDSEC
  0
SECTION
  2
ENTITIES
  0
POLYLINE
  8
gg1
 62
1
 40
0.000000
 41
0.000000
 66
  1
  0
VERTEX
  8
gg1
 10
0.600000
 20
-0.110000
  0
VERTEX
  8
gg1
 10
0.600000
 20
-0.012500
  0
SEQEND
  8
gg1
  0
POLYLINE
  8
gg1
 62
1
 40
0.000000
 41
0.000000
 66
  1
  0
VERTEX
  8
gg1
 10
0.000000
 20
-0.110000
  0
VERTEX
  8
gg1
 10
0.000000
 20
-0.012500
  0
SEQEND
  8
gg1
  0
POLYLINE
  8
gg1
 62
1
 40
0.000000
 41
0.000000
 66
  1
  0
VERTEX
  8
gg1
 10
0.455000
 20
-0.100000
  0
VERTEX
  8
gg1
 10
0.600000
 20
-0.100000
  0
SEQEND
  8
gg1
  0
POLYLINE
  8
gg1
 62
1
 40
0.000000
 41
0.000000
 66
  1
  0
VERTEX
  8
gg1
 10
0.000000
 20
-0.100000
  0
VERTEX
  8
gg1
 10
0.113000
 20
-0.100000
  0
SEQEND
  8
gg1
  0
POLYLINE
  8
gg1
 62
1
 40
0.000000
 41
0.000000
 66
  1
  0
VERTEX
  8
gg1
 10
0.540000
 20
-0.080000
  0
VERTEX
  8
gg1
 10
0.600000
 20
-0.100000
  0
SEQEND
  8
gg1
  0
POLYLINE
  8
gg1
 62
1
 40
0.000000
 41
0.000000
 66
  1
  0
VERTEX
  8
gg1
 10
0.540000
 20
-0.120000
  0
VERTEX
  8
gg1
 10
0.600000
 20
-0.100000
  0
SEQEND
  8
gg1
  0
POLYLINE
  8
gg1
 62
1
 40
0.000000
 41
0.000000
 66
  1
  0
VERTEX
  8
gg1
 10
0.000000
 20
-0.100000
  0
VERTEX
  8
gg1
 10
0.060000
 20
-0.120000
  0
SEQEND
  8
gg1
  0
POLYLINE
  8
gg1
 62
1
 40
0.000000
 41
0.000000
 66
  1
  0
VERTEX
  8
gg1
 10
0.000000
 20
-0.100000
  0
VERTEX
  8
gg1
 10
0.060000
 20
-0.080000
  0
SEQEND
  8
gg1
  0
POLYLINE
  8
gg1
 62
1
 40
0.000000
 41
0.000000
 66
  1
  0
VERTEX
  8
gg1
 10
-0.110000
 20
1.000000
  0
VERTEX
  8
gg1
 10
-0.012500
 20
1.000000
  0
SEQEND
  8
gg1
  0
POLYLINE
  8
gg1
 62
1
 40
0.000000
 41
0.000000
 66
  1
  0
VERTEX
  8
gg1
 10
-0.110000
 20
0.000000
  0
VERTEX
  8
gg1
 10
-0.012500
 20
0.000000
  0
SEQEND
  8
gg1
  0
POLYLINE
  8
gg1
 62
1
 40
0.000000
 41
0.000000
 66
  1
  0
VERTEX
  8
gg1
 10
-0.100000
 20
0.679900
  0
VERTEX
  8
gg1
 10
-0.100000
 20
1.000000
  0
SEQEND
  8
gg1
  0
POLYLINE
  8
gg1
 62
1
 40
0.000000
 41
0.000000
 66
  1
  0
VERTEX
  8
gg1
 10
-0.100000
 20
0.000000
  0
VERTEX
  8
gg1
 10
-0.100000
 20
0.288100
  0
SEQEND
  8
gg1
  0
POLYLINE
  8
gg1
 62
1
 40
0.000000
 41
0.000000
 66
  1
  0
VERTEX
  8
gg1
 10
-0.120000
 20
0.940000
  0
VERTEX
  8
gg1
 10
-0.100000
 20
1.000000
  0
VERTEX
  8
gg1
 10
-0.080000
 20
0.940000
  0
SEQEND
  8
gg1
  0
POLYLINE
  8
gg1
 62
1
 40
0.000000
 41
0.000000
 66
  1
  0
VERTEX
  8
gg1
 10
-0.100000
 20
0.000000
  0
VERTEX
  8
gg1
 10
-0.080000
 20
0.060000
  0
SEQEND
  8
gg1
  0
POLYLINE
  8
gg1
 62
1
 40
0.000000
 41
0.000000
 66
  1
  0
VERTEX
  8
gg1
 10
-0.120000
 20
0.060000
  0
VERTEX
  8
gg1
 10
-0.100000
 20
0.000000
  0
SEQEND
  8
gg1
  0
POLYLINE
  8
gg1
 62
1
 40
0.000000
 41
0.000000
 66
  1
  0
VERTEX
  8
gg1
 10
0.000000
 20
0.000000
  0
VERTEX
  8
gg1
 10
0.600000
 20
0.000000
  0
VERTEX
  8
gg1
 10
0.600000
 20
1.000000
  0
SEQEND
  8
gg1
  0
POLYLINE
  8
gg1
 62
1
 40
0.000000
 41
0.000000
 66
  1
  0
VERTEX
  8
gg1
 10
0.600000
 20
1.000000
  0
VERTEX
  8
gg1
 10
0.600000
 20
1.000000
  0
SEQEND
  8
gg1
  0
POLYLINE
  8
gg1
 62
1
 40
0.000000
 41
0.000000
 66
  1
  0
VERTEX
  8
gg1
 10
0.000000
 20
1.000000
  0
VERTEX
  8
gg1
 10
0.600000
 20
1.000000
  0
SEQEND
  8
gg1
  0
POLYLINE
  8
gg1
 62
1
 40
0.000000
 41
0.000000
 66
  1
  0
VERTEX
  8
gg1
 10
0.000000
 20
1.000000
  0
VERTEX
  8
gg1
 10
0.000000
 20
1.000000
  0
SEQEND
  8
gg1
  0
POLYLINE
  8
gg1
 62
1
 40
0.000000
 41
0.000000
 66
  1
  0
VERTEX
  8
gg1
 10
0.000000
 20
0.000000
  0
VERTEX
  8
gg1
 10
0.000000
 20
1.000000
  0
SEQEND
  8
gg1
  0
POLYLINE
  8
gg1
 62
1
 40
0.000000
 41
0.000000
 66
  1
  0
VERTEX
  8
gg1
 10
0.184800
 20
0.840000
  0
VERTEX
  8
gg1
 10
0.212400
 20
0.840000
  0
SEQEND
  8
gg1
  0
POLYLINE
  8
gg1
 62
1
 40
0.000000
 41
0.000000
 66
  1
  0
VERTEX
  8
gg1
 10
0.198600
 20
0.826200
  0
VERTEX
  8
gg1
 10
0.198600
 20
0.853800
  0
SEQEND
  8
gg1
  0
POLYLINE
  8
gg1
 62
1
 40
0.000000
 41
0.000000
 66
  1
  0
VERTEX
  8
gg1
 10
0.190700
 20
0.840000
  0
VERTEX
  8
gg1
 10
0.218300
 20
0.840000
  0
SEQEND
  8
gg1
  0
POLYLINE
  8
gg1
 62
1
 40
0.000000
 41
0.000000
 66
  1
  0
VERTEX
  8
gg1
 10
0.204500
 20
0.826200
  0
VERTEX
  8
gg1
 10
0.204500
 20
0.853800
  0
SEQEND
  8
gg1
  0
POLYLINE
  8
gg1
 62
1
 40
0.000000
 41
0.000000
 66
  1
  0
VERTEX
  8
gg1
 10
0.424000
 20
0.955200
  0
VERTEX
  8
gg1
 10
0.451600
 20
0.955200
  0
SEQEND
  8
gg1
  0
POLYLINE
  8
gg1
 62
1
 40
0.000000
 41
0.000000
 66
  1
  0
VERTEX
  8
gg1
 10
0.437800
 20
0.941400
  0
VERTEX
  8
gg1
 10
0.437800
 20
0.968900
  0
SEQEND
  8
gg1
  0
POLYLINE
  8
gg1
 62
1
 40
0.000000
 41
0.000000
 66
  1
  0
VERTEX
  8
gg1
 10
0.381700
 20
0.840000
  0
VERTEX
  8
gg1
 10
0.409300
 20
0.840000
  0
SEQEND
  8
gg1
  0
POLYLINE
  8
gg1
 62
1
 40
0.000000
 41
0.000000
 66
  1
  0
VERTEX
  8
gg1
 10
0.395500
 20
0.826200
  0
VERTEX
  8
gg1
 10
0.395500
 20
0.853800
  0
SEQEND
  8
gg1
  0
POLYLINE
  8
gg1
 62
1
 40
0.000000
 41
0.000000
 66
  1
  0
VERTEX
  8
gg1
 10
0.387600
 20
0.840000
  0
VERTEX
  8
gg1
 10
0.415200
 20
0.840000
  0
SEQEND
  8
gg1
  0
POLYLINE
  8
gg1
 62
1
 40
0.000000
 41
0.000000
 66
  1
  0
VERTEX
  8
gg1
 10
0.401400
 20
0.826200
  0
VERTEX
  8
gg1
 10
0.401400
 20
0.853800
  0
SEQEND
  8
gg1
  0
POLYLINE
  8
gg1
 62
1
 40
0.000000
 41
0.000000
 66
  1
  0
VERTEX
  8
gg1
 10
0.424000
 20
0.937400
  0
VERTEX
  8
gg1
 10
0.451600
 20
0.937400
  0
SEQEND
  8
gg1
  0
POLYLINE
  8
gg1
 62
1
 40
0.000000
 41
0.000000
 66
  1
  0
VERTEX
  8
gg1
 10
0.437800
 20
0.923700
  0
VERTEX
  8
gg1
 10
0.437800
 20
0.951200
  0
SEQEND
  8
gg1
  0
POLYLINE
  8
gg1
 62
1
 40
0.000000
 41
0.000000
 66
  1
  0
VERTEX
  8
gg1
 10
0.148400
 20
0.937400
  0
VERTEX
  8
gg1
 10
0.176000
 20
0.937400
  0
SEQEND
  8
gg1
  0
POLYLINE
  8
gg1
 62
1
 40
0.000000
 41
0.000000
 66
  1
  0
VERTEX
  8
gg1
 10
0.162200
 20
0.923700
  0
VERTEX
  8
gg1
 10
0.162200
 20
0.951200
  0
SEQEND
  8
gg1
  0
POLYLINE
  8
gg1
 62
1
 40
0.000000
 41
0.000000
 66
  1
  0
VERTEX
  8
gg1
 10
0.148400
 20
0.955200
  0
VERTEX
  8
gg1
 10
0.176000
 20
0.955200
  0
SEQEND
  8
gg1
  0
POLYLINE
  8
gg1
 62
1
 40
0.000000
 41
0.000000
 66
  1
  0
VERTEX
  8
gg1
 10
0.162200
 20
0.941400
  0
VERTEX
  8
gg1
 10
0.162200
 20
0.968900
  0
SEQEND
  8
gg1
  0
POLYLINE
  8
gg1
 62
1
 40
0.000000
 41
0.000000
 66
  1
  0
VERTEX
  8
gg1
 10
0.030000
 20
0.050000
  0
VERTEX
  8
gg1
 10
0.070000
 20
0.050000
  0
SEQEND
  8
gg1
  0
POLYLINE
  8
gg1
 62
1
 40
0.000000
 41
0.000000
 66
  1
  0
VERTEX
  8
gg1
 10
0.050000
 20
0.030000
  0
VERTEX
  8
gg1
 10
0.050000
 20
0.070000
  0
SEQEND
  8
gg1
  0
POLYLINE
  8
gg1
 62
1
 40
0.000000
 41
0.000000
 66
  1
  0
VERTEX
  8
gg1
 10
0.030000
 20
0.150000
  0
VERTEX
  8
gg1
 10
0.070000
 20
0.150000
  0
SEQEND
  8
gg1
  0
POLYLINE
  8
gg1
 62
1
 40
0.000000
 41
0.000000
 66
  1
  0
VERTEX
  8
gg1
 10
0.050000
 20
0.130000
  0
VERTEX
  8
gg1
 10
0.050000
 20
0.170000
  0
SEQEND
  8
gg1
  0
POLYLINE
  8
gg1
 62
1
 40
0.000000
 41
0.000000
 66
  1
  0
VERTEX
  8
gg1
 10
0.380000
 20
0.150000
  0
VERTEX
  8
gg1
 10
0.420000
 20
0.150000
  0
SEQEND
  8
gg1
  0
POLYLINE
  8
gg1
 62
1
 40
0.000000
 41
0.000000
 66
  1
  0
VERTEX
  8
gg1
 10
0.400000
 20
0.130000
  0
VERTEX
  8
gg1
 10
0.400000
 20
0.170000
  0
SEQEND
  8
gg1
  0
POLYLINE
  8
gg1
 62
1
 40
0.000000
 41
0.000000
 66
  1
  0
VERTEX
  8
gg1
 10
0.380000
 20
0.050000
  0
VERTEX
  8
gg1
 10
0.420000
 20
0.050000
  0
SEQEND
  8
gg1
  0
POLYLINE
  8
gg1
 62
1
 40
0.000000
 41
0.000000
 66
  1
  0
VERTEX
  8
gg1
 10
0.400000
 20
0.030000
  0
VERTEX
  8
gg1
 10
0.400000
 20
0.070000
  0
SEQEND
  8
gg1
  0
POLYLINE
  8
gg1
 62
1
 40
0.000000
 41
0.000000
 66
  1
  0
VERTEX
  8
gg1
 10
0.280000
 20
0.150000
  0
VERTEX
  8
gg1
 10
0.320000
 20
0.150000
  0
SEQEND
  8
gg1
  0
POLYLINE
  8
gg1
 62
1
 40
0.000000
 41
0.000000
 66
  1
  0
VERTEX
  8
gg1
 10
0.300000
 20
0.130000
  0
VERTEX
  8
gg1
 10
0.300000
 20
0.170000
  0
SEQEND
  8
gg1
  0
POLYLINE
  8
gg1
 62
1
 40
0.000000
 41
0.000000
 66
  1
  0
VERTEX
  8
gg1
 10
0.180000
 20
0.050000
  0
VERTEX
  8
gg1
 10
0.220000
 20
0.050000
  0
SEQEND
  8
gg1
  0
POLYLINE
  8
gg1
 62
1
 40
0.000000
 41
0.000000
 66
  1
  0
VERTEX
  8
gg1
 10
0.200000
 20
0.030000
  0
VERTEX
  8
gg1
 10
0.200000
 20
0.070000
  0
SEQEND
  8
gg1
  0
POLYLINE
  8
gg1
 62
1
 40
0.000000
 41
0.000000
 66
  1
  0
VERTEX
  8
gg1
 10
0.180000
 20
0.150000
  0
VERTEX
  8
gg1
 10
0.220000
 20
0.150000
  0
SEQEND
  8
gg1
  0
POLYLINE
  8
gg1
 62
1
 40
0.000000
 41
0.000000
 66
  1
  0
VERTEX
  8
gg1
 10
0.200000
 20
0.130000
  0
VERTEX
  8
gg1
 10
0.200000
 20
0.170000
  0
SEQEND
  8
gg1
  0
POLYLINE
  8
gg1
 62
1
 40
0.000000
 41
0.000000
 66
  1
  0
VERTEX
  8
gg1
 10
0.280000
 20
0.050000
  0
VERTEX
  8
gg1
 10
0.320000
 20
0.050000
  0
SEQEND
  8
gg1
  0
POLYLINE
  8
gg1
 62
1
 40
0.000000
 41
0.000000
 66
  1
  0
VERTEX
  8
gg1
 10
0.300000
 20
0.030000
  0
VERTEX
  8
gg1
 10
0.300000
 20
0.070000
  0
SEQEND
  8
gg1
  0
POLYLINE
  8
gg1
 62
1
 40
0.000000
 41
0.000000
 66
  1
  0
VERTEX
  8
gg1
 10
0.030000
 20
0.250000
  0
VERTEX
  8
gg1
 10
0.070000
 20
0.250000
  0
SEQEND
  8
gg1
  0
POLYLINE
  8
gg1
 62
1
 40
0.000000
 41
0.000000
 66
  1
  0
VERTEX
  8
gg1
 10
0.050000
 20
0.230000
  0
VERTEX
  8
gg1
 10
0.050000
 20
0.270000
  0
SEQEND
  8
gg1
  0
POLYLINE
  8
gg1
 62
1
 40
0.000000
 41
0.000000
 66
  1
  0
VERTEX
  8
gg1
 10
0.030000
 20
0.350000
  0
VERTEX
  8
gg1
 10
0.070000
 20
0.350000
  0
SEQEND
  8
gg1
  0
POLYLINE
  8
gg1
 62
1
 40
0.000000
 41
0.000000
 66
  1
  0
VERTEX
  8
gg1
 10
0.050000
 20
0.330000
  0
VERTEX
  8
gg1
 10
0.050000
 20
0.370000
  0
SEQEND
  8
gg1
  0
POLYLINE
  8
gg1
 62
1
 40
0.000000
 41
0.000000
 66
  1
  0
VERTEX
  8
gg1
 10
0.030000
 20
0.450000
  0
VERTEX
  8
gg1
 10
0.070000
 20
0.450000
  0
SEQEND
  8
gg1
  0
POLYLINE
  8
gg1
 62
1
 40
0.000000
 41
0.000000
 66
  1
  0
VERTEX
  8
gg1
 10
0.050000
 20
0.430000
  0
VERTEX
  8
gg1
 10
0.050000
 20
0.470000
  0
SEQEND
  8
gg1
  0
POLYLINE
  8
gg1
 62
1
 40
0.000000
 41
0.000000
 66
  1
  0
VERTEX
  8
gg1
 10
0.030000
 20
0.550000
  0
VERTEX
  8
gg1
 10
0.070000
 20
0.550000
  0
SEQEND
  8
gg1
  0
POLYLINE
  8
gg1
 62
1
 40
0.000000
 41
0.000000
 66
  1
  0
VERTEX
  8
gg1
 10
0.050000
 20
0.530000
  0
VERTEX
  8
gg1
 10
0.050000
 20
0.570000
  0
SEQEND
  8
gg1
  0
POLYLINE
  8
gg1
 62
1
 40
0.000000
 41
0.000000
 66
  1
  0
VERTEX
  8
gg1
 10
0.030000
 20
0.650000
  0
VERTEX
  8
gg1
 10
0.070000
 20
0.650000
  0
SEQEND
  8
gg1
  0
POLYLINE
  8
gg1
 62
1
 40
0.000000
 41
0.000000
 66
  1
  0
VERTEX
  8
gg1
 10
0.050000
 20
0.630000
  0
VERTEX
  8
gg1
 10
0.050000
 20
0.670000
  0
SEQEND
  8
gg1
  0
POLYLINE
  8
gg1
 62
1
 40
0.000000
 41
0.000000
 66
  1
  0
VERTEX
  8
gg1
 10
0.030000
 20
0.750000
  0
VERTEX
  8
gg1
 10
0.070000
 20
0.750000
  0
SEQEND
  8
gg1
  0
POLYLINE
  8
gg1
 62
1
 40
0.000000
 41
0.000000
 66
  1
  0
VERTEX
  8
gg1
 10
0.050000
 20
0.730000
  0
VERTEX
  8
gg1
 10
0.050000
 20
0.770000
  0
SEQEND
  8
gg1
  0
POLYLINE
  8
gg1
 62
1
 40
0.000000
 41
0.000000
 66
  1
  0
VERTEX
  8
gg1
 10
0.030000
 20
0.850000
  0
VERTEX
  8
gg1
 10
0.070000
 20
0.850000
  0
SEQEND
  8
gg1
  0
POLYLINE
  8
gg1
 62
1
 40
0.000000
 41
0.000000
 66
  1
  0
VERTEX
  8
gg1
 10
0.050000
 20
0.830000
  0
VERTEX
  8
gg1
 10
0.050000
 20
0.870000
  0
SEQEND
  8
gg1
  0
POLYLINE
  8
gg1
 62
1
 40
0.000000
 41
0.000000
 66
  1
  0
VERTEX
  8
gg1
 10
0.030000
 20
0.950000
  0
VERTEX
  8
gg1
 10
0.070000
 20
0.950000
  0
SEQEND
  8
gg1
  0
POLYLINE
  8
gg1
 62
1
 40
0.000000
 41
0.000000
 66
  1
  0
VERTEX
  8
gg1
 10
0.050000
 20
0.930000
  0
VERTEX
  8
gg1
 10
0.050000
 20
0.970000
  0
SEQEND
  8
gg1
  0
POLYLINE
  8
gg1
 62
1
 40
0.000000
 41
0.000000
 66
  1
  0
VERTEX
  8
gg1
 10
0.530000
 20
0.050000
  0
VERTEX
  8
gg1
 10
0.570000
 20
0.050000
  0
SEQEND
  8
gg1
  0
POLYLINE
  8
gg1
 62
1
 40
0.000000
 41
0.000000
 66
  1
  0
VERTEX
  8
gg1
 10
0.550000
 20
0.030000
  0
VERTEX
  8
gg1
 10
0.550000
 20
0.070000
  0
SEQEND
  8
gg1
  0
POLYLINE
  8
gg1
 62
1
 40
0.000000
 41
0.000000
 66
  1
  0
VERTEX
  8
gg1
 10
0.530000
 20
0.150000
  0
VERTEX
  8
gg1
 10
0.570000
 20
0.150000
  0
SEQEND
  8
gg1
  0
POLYLINE
  8
gg1
 62
1
 40
0.000000
 41
0.000000
 66
  1
  0
VERTEX
  8
gg1
 10
0.550000
 20
0.130000
  0
VERTEX
  8
gg1
 10
0.550000
 20
0.170000
  0
SEQEND
  8
gg1
  0
POLYLINE
  8
gg1
 62
1
 40
0.000000
 41
0.000000
 66
  1
  0
VERTEX
  8
gg1
 10
0.530000
 20
0.250000
  0
VERTEX
  8
gg1
 10
0.570000
 20
0.250000
  0
SEQEND
  8
gg1
  0
POLYLINE
  8
gg1
 62
1
 40
0.000000
 41
0.000000
 66
  1
  0
VERTEX
  8
gg1
 10
0.550000
 20
0.230000
  0
VERTEX
  8
gg1
 10
0.550000
 20
0.270000
  0
SEQEND
  8
gg1
  0
POLYLINE
  8
gg1
 62
1
 40
0.000000
 41
0.000000
 66
  1
  0
VERTEX
  8
gg1
 10
0.530000
 20
0.350000
  0
VERTEX
  8
gg1
 10
0.570000
 20
0.350000
  0
SEQEND
  8
gg1
  0
POLYLINE
  8
gg1
 62
1
 40
0.000000
 41
0.000000
 66
  1
  0
VERTEX
  8
gg1
 10
0.550000
 20
0.330000
  0
VERTEX
  8
gg1
 10
0.550000
 20
0.370000
  0
SEQEND
  8
gg1
  0
POLYLINE
  8
gg1
 62
1
 40
0.000000
 41
0.000000
 66
  1
  0
VERTEX
  8
gg1
 10
0.530000
 20
0.450000
  0
VERTEX
  8
gg1
 10
0.570000
 20
0.450000
  0
SEQEND
  8
gg1
  0
POLYLINE
  8
gg1
 62
1
 40
0.000000
 41
0.000000
 66
  1
  0
VERTEX
  8
gg1
 10
0.550000
 20
0.430000
  0
VERTEX
  8
gg1
 10
0.550000
 20
0.470000
  0
SEQEND
  8
gg1
  0
POLYLINE
  8
gg1
 62
1
 40
0.000000
 41
0.000000
 66
  1
  0
VERTEX
  8
gg1
 10
0.530000
 20
0.550000
  0
VERTEX
  8
gg1
 10
0.570000
 20
0.550000
  0
SEQEND
  8
gg1
  0
POLYLINE
  8
gg1
 62
1
 40
0.000000
 41
0.000000
 66
  1
  0
VERTEX
  8
gg1
 10
0.550000
 20
0.530000
  0
VERTEX
  8
gg1
 10
0.550000
 20
0.570000
  0
SEQEND
  8
gg1
  0
POLYLINE
  8
gg1
 62
1
 40
0.000000
 41
0.000000
 66
  1
  0
VERTEX
  8
gg1
 10
0.530000
 20
0.650000
  0
VERTEX
  8
gg1
 10
0.570000
 20
0.650000
  0
SEQEND
  8
gg1
  0
POLYLINE
  8
gg1
 62
1
 40
0.000000
 41
0.000000
 66
  1
  0
VERTEX
  8
gg1
 10
0.550000
 20
0.630000
  0
VERTEX
  8
gg1
 10
0.550000
 20
0.670000
  0
SEQEND
  8
gg1
  0
POLYLINE
  8
gg1
 62
1
 40
0.000000
 41
0.000000
 66
  1
  0
VERTEX
  8
gg1
 10
0.530000
 20
0.950000
  0
VERTEX
  8
gg1
 10
0.570000
 20
0.950000
  0
SEQEND
  8
gg1
  0
POLYLINE
  8
gg1
 62
1
 40
0.000000
 41
0.000000
 66
  1
  0
VERTEX
  8
gg1
 10
0.550000
 20
0.930000
  0
VERTEX
  8
gg1
 10
0.550000
 20
0.970000
  0
SEQEND
  8
gg1
  0
POLYLINE
  8
gg1
 62
1
 40
0.000000
 41
0.000000
 66
  1
  0
VERTEX
  8
gg1
 10
0.530000
 20
0.850000
  0
VERTEX
  8
gg1
 10
0.570000
 20
0.850000
  0
SEQEND
  8
gg1
  0
POLYLINE
  8
gg1
 62
1
 40
0.000000
 41
0.000000
 66
  1
  0
VERTEX
  8
gg1
 10
0.550000
 20
0.830000
  0
VERTEX
  8
gg1
 10
0.550000
 20
0.870000
  0
SEQEND
  8
gg1
  0
POLYLINE
  8
gg1
 62
1
 40
0.000000
 41
0.000000
 66
  1
  0
VERTEX
  8
gg1
 10
0.530000
 20
0.750000
  0
VERTEX
  8
gg1
 10
0.570000
 20
0.750000
  0
SEQEND
  8
gg1
  0
POLYLINE
  8
gg1
 62
1
 40
0.000000
 41
0.000000
 66
  1
  0
VERTEX
  8
gg1
 10
0.550000
 20
0.730000
  0
VERTEX
  8
gg1
 10
0.550000
 20
0.770000
  0
SEQEND
  8
gg1
  0
POLYLINE
  8
gg1
 62
1
 40
0.000000
 41
0.000000
 66
  1
  0
VERTEX
  8
gg1
 10
0.145000
 20
0.192000
  0
VERTEX
  8
gg1
 10
0.157000
 20
0.192000
  0
SEQEND
  8
gg1
  0
POLYLINE
  8
gg1
 62
1
 40
0.000000
 41
0.000000
 66
  1
  0
VERTEX
  8
gg1
 10
0.151000
 20
0.186000
  0
VERTEX
  8
gg1
 10
0.151000
 20
0.198000
  0
SEQEND
  8
gg1
  0
POLYLINE
  8
gg1
 62
1
 40
0.000000
 41
0.000000
 66
  1
  0
VERTEX
  8
gg1
 10
0.124000
 20
0.432000
  0
VERTEX
  8
gg1
 10
0.136000
 20
0.432000
  0
SEQEND
  8
gg1
  0
POLYLINE
  8
gg1
 62
1
 40
0.000000
 41
0.000000
 66
  1
  0
VERTEX
  8
gg1
 10
0.130000
 20
0.426000
  0
VERTEX
  8
gg1
 10
0.130000
 20
0.438000
  0
SEQEND
  8
gg1
  0
POLYLINE
  8
gg1
 62
1
 40
0.000000
 41
0.000000
 66
  1
  0
VERTEX
  8
gg1
 10
0.253000
 20
0.289000
  0
VERTEX
  8
gg1
 10
0.265000
 20
0.289000
  0
SEQEND
  8
gg1
  0
POLYLINE
  8
gg1
 62
1
 40
0.000000
 41
0.000000
 66
  1
  0
VERTEX
  8
gg1
 10
0.259000
 20
0.283000
  0
VERTEX
  8
gg1
 10
0.259000
 20
0.295000
  0
SEQEND
  8
gg1
  0
POLYLINE
  8
gg1
 62
1
 40
0.000000
 41
0.000000
 66
  1
  0
VERTEX
  8
gg1
 10
0.238000
 20
0.707000
  0
VERTEX
  8
gg1
 10
0.250000
 20
0.707000
  0
SEQEND
  8
gg1
  0
POLYLINE
  8
gg1
 62
1
 40
0.000000
 41
0.000000
 66
  1
  0
VERTEX
  8
gg1
 10
0.244000
 20
0.701000
  0
VERTEX
  8
gg1
 10
0.244000
 20
0.713000
  0
SEQEND
  8
gg1
  0
POLYLINE
  8
gg1
 62
1
 40
0.000000
 41
0.000000
 66
  1
  0
VERTEX
  8
gg1
 10
0.191000
 20
0.725000
  0
VERTEX
  8
gg1
 10
0.203000
 20
0.725000
  0
SEQEND
  8
gg1
  0
POLYLINE
  8
gg1
 62
1
 40
0.000000
 41
0.000000
 66
  1
  0
VERTEX
  8
gg1
 10
0.197000
 20
0.719000
  0
VERTEX
  8
gg1
 10
0.197000
 20
0.731000
  0
SEQEND
  8
gg1
  0
POLYLINE
  8
gg1
 62
1
 40
0.000000
 41
0.000000
 66
  1
  0
VERTEX
  8
gg1
 10
0.157000
 20
0.683000
  0
VERTEX
  8
gg1
 10
0.169000
 20
0.683000
  0
SEQEND
  8
gg1
  0
POLYLINE
  8
gg1
 62
1
 40
0.000000
 41
0.000000
 66
  1
  0
VERTEX
  8
gg1
 10
0.163000
 20
0.677000
  0
VERTEX
  8
gg1
 10
0.163000
 20
0.689000
  0
SEQEND
  8
gg1
  0
POLYLINE
  8
gg1
 62
1
 40
0.000000
 41
0.000000
 66
  1
  0
VERTEX
  8
gg1
 10
0.140300
 20
0.711700
  0
VERTEX
  8
gg1
 10
0.152300
 20
0.711700
  0
SEQEND
  8
gg1
  0
POLYLINE
  8
gg1
 62
1
 40
0.000000
 41
0.000000
 66
  1
  0
VERTEX
  8
gg1
 10
0.146300
 20
0.705700
  0
VERTEX
  8
gg1
 10
0.146300
 20
0.717700
  0
SEQEND
  8
gg1
  0
POLYLINE
  8
gg1
 62
1
 40
0.000000
 41
0.000000
 66
  1
  0
VERTEX
  8
gg1
 10
0.142000
 20
0.745000
  0
VERTEX
  8
gg1
 10
0.154000
 20
0.745000
  0
SEQEND
  8
gg1
  0
POLYLINE
  8
gg1
 62
1
 40
0.000000
 41
0.000000
 66
  1
  0
VERTEX
  8
gg1
 10
0.148000
 20
0.739000
  0
VERTEX
  8
gg1
 10
0.148000
 20
0.751000
  0
SEQEND
  8
gg1
  0
POLYLINE
  8
gg1
 62
1
 40
0.000000
 41
0.000000
 66
  1
  0
VERTEX
  8
gg1
 10
0.117000
 20
0.529000
  0
VERTEX
  8
gg1
 10
0.129000
 20
0.529000
  0
SEQEND
  8
gg1
  0
POLYLINE
  8
gg1
 62
1
 40
0.000000
 41
0.000000
 66
  1
  0
VERTEX
  8
gg1
 10
0.123000
 20
0.523000
  0
VERTEX
  8
gg1
 10
0.123000
 20
0.535000
  0
SEQEND
  8
gg1
  0
POLYLINE
  8
gg1
 62
1
 40
0.000000
 41
0.000000
 66
  1
  0
VERTEX
  8
gg1
 10
0.107000
 20
0.481000
  0
VERTEX
  8
gg1
 10
0.119000
 20
0.481000
  0
SEQEND
  8
gg1
  0
POLYLINE
  8
gg1
 62
1
 40
0.000000
 41
0.000000
 66
  1
  0
VERTEX
  8
gg1
 10
0.113000
 20
0.475000
  0
VERTEX
  8
gg1
 10
0.113000
 20
0.487000
  0
SEQEND
  8
gg1
  0
POLYLINE
  8
gg1
 62
1
 40
0.000000
 41
0.000000
 66
  1
  0
VERTEX
  8
gg1
 10
0.465000
 20
0.496000
  0
VERTEX
  8
gg1
 10
0.477000
 20
0.496000
  0
SEQEND
  8
gg1
  0
POLYLINE
  8
gg1
 62
1
 40
0.000000
 41
0.000000
 66
  1
  0
VERTEX
  8
gg1
 10
0.471000
 20
0.490000
  0
VERTEX
  8
gg1
 10
0.471000
 20
0.502000
  0
SEQEND
  8
gg1
  0
POLYLINE
  8
gg1
 62
1
 40
0.000000
 41
0.000000
 66
  1
  0
VERTEX
  8
gg1
 10
0.301000
 20
0.294000
  0
VERTEX
  8
gg1
 10
0.313000
 20
0.294000
  0
SEQEND
  8
gg1
  0
POLYLINE
  8
gg1
 62
1
 40
0.000000
 41
0.000000
 66
  1
  0
VERTEX
  8
gg1
 10
0.307000
 20
0.288000
  0
VERTEX
  8
gg1
 10
0.307000
 20
0.300000
  0
SEQEND
  8
gg1
  0
POLYLINE
  8
gg1
 62
1
 40
0.000000
 41
0.000000
 66
  1
  0
VERTEX
  8
gg1
 10
0.126000
 20
0.165000
  0
VERTEX
  8
gg1
 10
0.138000
 20
0.165000
  0
SEQEND
  8
gg1
  0
POLYLINE
  8
gg1
 62
1
 40
0.000000
 41
0.000000
 66
  1
  0
VERTEX
  8
gg1
 10
0.132000
 20
0.159000
  0
VERTEX
  8
gg1
 10
0.132000
 20
0.171000
  0
SEQEND
  8
gg1
  0
POLYLINE
  8
gg1
 62
1
 40
0.000000
 41
0.000000
 66
  1
  0
VERTEX
  8
gg1
 10
0.207000
 20
0.482600
  0
VERTEX
  8
gg1
 10
0.219000
 20
0.482600
  0
SEQEND
  8
gg1
  0
POLYLINE
  8
gg1
 62
1
 40
0.000000
 41
0.000000
 66
  1
  0
VERTEX
  8
gg1
 10
0.213000
 20
0.476600
  0
VERTEX
  8
gg1
 10
0.213000
 20
0.488600
  0
SEQEND
  8
gg1
  0
POLYLINE
  8
gg1
 62
1
 40
0.000000
 41
0.000000
 66
  1
  0
VERTEX
  8
gg1
 10
0.434000
 20
0.262000
  0
VERTEX
  8
gg1
 10
0.446000
 20
0.262000
  0
SEQEND
  8
gg1
  0
POLYLINE
  8
gg1
 62
1
 40
0.000000
 41
0.000000
 66
  1
  0
VERTEX
  8
gg1
 10
0.440000
 20
0.256000
  0
VERTEX
  8
gg1
 10
0.440000
 20
0.268000
  0
SEQEND
  8
gg1
  0
POLYLINE
  8
gg1
 62
1
 40
0.000000
 41
0.000000
 66
  1
  0
VERTEX
  8
gg1
 10
0.119000
 20
0.399000
  0
VERTEX
  8
gg1
 10
0.131000
 20
0.399000
  0
SEQEND
  8
gg1
  0
POLYLINE
  8
gg1
 62
1
 40
0.000000
 41
0.000000
 66
  1
  0
VERTEX
  8
gg1
 10
0.125000
 20
0.393000
  0
VERTEX
  8
gg1
 10
0.125000
 20
0.405000
  0
SEQEND
  8
gg1
  0
POLYLINE
  8
gg1
 62
1
 40
0.000000
 41
0.000000
 66
  1
  0
VERTEX
  8
gg1
 10
0.434000
 20
0.338000
  0
VERTEX
  8
gg1
 10
0.446000
 20
0.338000
  0
SEQEND
  8
gg1
  0
POLYLINE
  8
gg1
 62
1
 40
0.000000
 41
0.000000
 66
  1
  0
VERTEX
  8
gg1
 10
0.440000
 20
0.332000
  0
VERTEX
  8
gg1
 10
0.440000
 20
0.344000
  0
SEQEND
  8
gg1
  0
POLYLINE
  8
gg1
 62
1
 40
0.000000
 41
0.000000
 66
  1
  0
VERTEX
  8
gg1
 10
0.378000
 20
0.563000
  0
VERTEX
  8
gg1
 10
0.390000
 20
0.563000
  0
SEQEND
  8
gg1
  0
POLYLINE
  8
gg1
 62
1
 40
0.000000
 41
0.000000
 66
  1
  0
VERTEX
  8
gg1
 10
0.384000
 20
0.557000
  0
VERTEX
  8
gg1
 10
0.384000
 20
0.569000
  0
SEQEND
  8
gg1
  0
POLYLINE
  8
gg1
 62
1
 40
0.000000
 41
0.000000
 66
  1
  0
VERTEX
  8
gg1
 10
0.403000
 20
0.356000
  0
VERTEX
  8
gg1
 10
0.415000
 20
0.356000
  0
SEQEND
  8
gg1
  0
POLYLINE
  8
gg1
 62
1
 40
0.000000
 41
0.000000
 66
  1
  0
VERTEX
  8
gg1
 10
0.409000
 20
0.350000
  0
VERTEX
  8
gg1
 10
0.409000
 20
0.362000
  0
SEQEND
  8
gg1
  0
POLYLINE
  8
gg1
 62
1
 40
0.000000
 41
0.000000
 66
  1
  0
VERTEX
  8
gg1
 10
0.464000
 20
0.544000
  0
VERTEX
  8
gg1
 10
0.476000
 20
0.544000
  0
SEQEND
  8
gg1
  0
POLYLINE
  8
gg1
 62
1
 40
0.000000
 41
0.000000
 66
  1
  0
VERTEX
  8
gg1
 10
0.470000
 20
0.538000
  0
VERTEX
  8
gg1
 10
0.470000
 20
0.550000
  0
SEQEND
  8
gg1
  0
POLYLINE
  8
gg1
 62
1
 40
0.000000
 41
0.000000
 66
  1
  0
VERTEX
  8
gg1
 10
0.344000
 20
0.090000
  0
VERTEX
  8
gg1
 10
0.356000
 20
0.090000
  0
SEQEND
  8
gg1
  0
POLYLINE
  8
gg1
 62
1
 40
0.000000
 41
0.000000
 66
  1
  0
VERTEX
  8
gg1
 10
0.350000
 20
0.084000
  0
VERTEX
  8
gg1
 10
0.350000
 20
0.096000
  0
SEQEND
  8
gg1
  0
POLYLINE
  8
gg1
 62
1
 40
0.000000
 41
0.000000
 66
  1
  0
VERTEX
  8
gg1
 10
0.271000
 20
0.706000
  0
VERTEX
  8
gg1
 10
0.283000
 20
0.706000
  0
SEQEND
  8
gg1
  0
POLYLINE
  8
gg1
 62
1
 40
0.000000
 41
0.000000
 66
  1
  0
VERTEX
  8
gg1
 10
0.277000
 20
0.700000
  0
VERTEX
  8
gg1
 10
0.277000
 20
0.712000
  0
SEQEND
  8
gg1
  0
POLYLINE
  8
gg1
 62
1
 40
0.000000
 41
0.000000
 66
  1
  0
VERTEX
  8
gg1
 10
0.117000
 20
0.562000
  0
VERTEX
  8
gg1
 10
0.129000
 20
0.562000
  0
SEQEND
  8
gg1
  0
POLYLINE
  8
gg1
 62
1
 40
0.000000
 41
0.000000
 66
  1
  0
VERTEX
  8
gg1
 10
0.123000
 20
0.556000
  0
VERTEX
  8
gg1
 10
0.123000
 20
0.568000
  0
SEQEND
  8
gg1
  0
POLYLINE
  8
gg1
 62
1
 40
0.000000
 41
0.000000
 66
  1
  0
VERTEX
  8
gg1
 10
0.320600
 20
0.796000
  0
VERTEX
  8
gg1
 10
0.332600
 20
0.796000
  0
SEQEND
  8
gg1
  0
POLYLINE
  8
gg1
 62
1
 40
0.000000
 41
0.000000
 66
  1
  0
VERTEX
  8
gg1
 10
0.326600
 20
0.790000
  0
VERTEX
  8
gg1
 10
0.326600
 20
0.802000
  0
SEQEND
  8
gg1
  0
POLYLINE
  8
gg1
 62
1
 40
0.000000
 41
0.000000
 66
  1
  0
VERTEX
  8
gg1
 10
0.431000
 20
0.689000
  0
VERTEX
  8
gg1
 10
0.443000
 20
0.689000
  0
SEQEND
  8
gg1
  0
POLYLINE
  8
gg1
 62
1
 40
0.000000
 41
0.000000
 66
  1
  0
VERTEX
  8
gg1
 10
0.437000
 20
0.683000
  0
VERTEX
  8
gg1
 10
0.437000
 20
0.695000
  0
SEQEND
  8
gg1
  0
POLYLINE
  8
gg1
 62
1
 40
0.000000
 41
0.000000
 66
  1
  0
VERTEX
  8
gg1
 10
0.254000
 20
0.779000
  0
VERTEX
  8
gg1
 10
0.266000
 20
0.779000
  0
SEQEND
  8
gg1
  0
POLYLINE
  8
gg1
 62
1
 40
0.000000
 41
0.000000
 66
  1
  0
VERTEX
  8
gg1
 10
0.260000
 20
0.773000
  0
VERTEX
  8
gg1
 10
0.260000
 20
0.785000
  0
SEQEND
  8
gg1
  0
POLYLINE
  8
gg1
 62
1
 40
0.000000
 41
0.000000
 66
  1
  0
VERTEX
  8
gg1
 10
0.287000
 20
0.796000
  0
VERTEX
  8
gg1
 10
0.299000
 20
0.796000
  0
SEQEND
  8
gg1
  0
POLYLINE
  8
gg1
 62
1
 40
0.000000
 41
0.000000
 66
  1
  0
VERTEX
  8
gg1
 10
0.293000
 20
0.790000
  0
VERTEX
  8
gg1
 10
0.293000
 20
0.802000
  0
SEQEND
  8
gg1
  0
POLYLINE
  8
gg1
 62
1
 40
0.000000
 41
0.000000
 66
  1
  0
VERTEX
  8
gg1
 10
0.390000
 20
0.294000
  0
VERTEX
  8
gg1
 10
0.402000
 20
0.294000
  0
SEQEND
  8
gg1
  0
POLYLINE
  8
gg1
 62
1
 40
0.000000
 41
0.000000
 66
  1
  0
VERTEX
  8
gg1
 10
0.396000
 20
0.288000
  0
VERTEX
  8
gg1
 10
0.396000
 20
0.300000
  0
SEQEND
  8
gg1
  0
POLYLINE
  8
gg1
 62
1
 40
0.000000
 41
0.000000
 66
  1
  0
VERTEX
  8
gg1
 10
0.499500
 20
0.890000
  0
VERTEX
  8
gg1
 10
0.511500
 20
0.890000
  0
SEQEND
  8
gg1
  0
POLYLINE
  8
gg1
 62
1
 40
0.000000
 41
0.000000
 66
  1
  0
VERTEX
  8
gg1
 10
0.505500
 20
0.884000
  0
VERTEX
  8
gg1
 10
0.505500
 20
0.896000
  0
SEQEND
  8
gg1
  0
POLYLINE
  8
gg1
 62
1
 40
0.000000
 41
0.000000
 66
  1
  0
VERTEX
  8
gg1
 10
0.462000
 20
0.614000
  0
VERTEX
  8
gg1
 10
0.474000
 20
0.614000
  0
SEQEND
  8
gg1
  0
POLYLINE
  8
gg1
 62
1
 40
0.000000
 41
0.000000
 66
  1
  0
VERTEX
  8
gg1
 10
0.468000
 20
0.608000
  0
VERTEX
  8
gg1
 10
0.468000
 20
0.620000
  0
SEQEND
  8
gg1
  0
POLYLINE
  8
gg1
 62
1
 40
0.000000
 41
0.000000
 66
  1
  0
VERTEX
  8
gg1
 10
0.449000
 20
0.150000
  0
VERTEX
  8
gg1
 10
0.461000
 20
0.150000
  0
SEQEND
  8
gg1
  0
POLYLINE
  8
gg1
 62
1
 40
0.000000
 41
0.000000
 66
  1
  0
VERTEX
  8
gg1
 10
0.455000
 20
0.144000
  0
VERTEX
  8
gg1
 10
0.455000
 20
0.156000
  0
SEQEND
  8
gg1
  0
POLYLINE
  8
gg1
 62
1
 40
0.000000
 41
0.000000
 66
  1
  0
VERTEX
  8
gg1
 10
0.169000
 20
-0.076000
  0
VERTEX
  8
gg1
 10
0.149000
 20
-0.086000
  0
VERTEX
  8
gg1
 10
0.129100
 20
-0.106000
  0
VERTEX
  8
gg1
 10
0.129100
 20
-0.126000
  0
VERTEX
  8
gg1
 10
0.139000
 20
-0.136000
  0
VERTEX
  8
gg1
 10
0.159000
 20
-0.136000
  0
VERTEX
  8
gg1
 10
0.169000
 20
-0.126000
  0
VERTEX
  8
gg1
 10
0.169000
 20
-0.116000
  0
VERTEX
  8
gg1
 10
0.159000
 20
-0.106000
  0
VERTEX
  8
gg1
 10
0.129100
 20
-0.106000
  0
SEQEND
  8
gg1
  0
POLYLINE
  8
gg1
 62
1
 40
0.000000
 41
0.000000
 66
  1
  0
VERTEX
  8
gg1
 10
0.189000
 20
-0.086000
  0
VERTEX
  8
gg1
 10
0.199000
 20
-0.076000
  0
VERTEX
  8
gg1
 10
0.219000
 20
-0.076000
  0
VERTEX
  8
gg1
 10
0.229000
 20
-0.086000
  0
VERTEX
  8
gg1
 10
0.229000
 20
-0.126000
  0
VERTEX
  8
gg1
 10
0.219000
 20
-0.136000
  0
VERTEX
  8
gg1
 10
0.199000
 20
-0.136000
  0
VERTEX
  8
gg1
 10
0.189000
 20
-0.126000
  0
VERTEX
  8
gg1
 10
0.189000
 20
-0.086000
  0
SEQEND
  8
gg1
  0
POLYLINE
  8
gg1
 62
1
 40
0.000000
 41
0.000000
 66
  1
  0
VERTEX
  8
gg1
 10
0.249000
 20
-0.086000
  0
VERTEX
  8
gg1
 10
0.259000
 20
-0.076000
  0
VERTEX
  8
gg1
 10
0.279000
 20
-0.076000
  0
VERTEX
  8
gg1
 10
0.289000
 20
-0.086000
  0
VERTEX
  8
gg1
 10
0.289000
 20
-0.126000
  0
VERTEX
  8
gg1
 10
0.279000
 20
-0.136000
  0
VERTEX
  8
gg1
 10
0.259000
 20
-0.136000
  0
VERTEX
  8
gg1
 10
0.249000
 20
-0.126000
  0
VERTEX
  8
gg1
 10
0.249000
 20
-0.086000
  0
SEQEND
  8
gg1
  0
POLYLINE
  8
gg1
 62
1
 40
0.000000
 41
0.000000
 66
  1
  0
VERTEX
  8
gg1
 10
0.309000
 20
-0.136000
  0
VERTEX
  8
gg1
 10
0.309000
 20
-0.096000
  0
VERTEX
  8
gg1
 10
0.319000
 20
-0.096000
  0
VERTEX
  8
gg1
 10
0.329000
 20
-0.106000
  0
VERTEX
  8
gg1
 10
0.329000
 20
-0.136000
  0
VERTEX
  8
gg1
 10
0.329000
 20
-0.106000
  0
VERTEX
  8
gg1
 10
0.339000
 20
-0.096000
  0
VERTEX
  8
gg1
 10
0.349000
 20
-0.106000
  0
VERTEX
  8
gg1
 10
0.349000
 20
-0.136000
  0
SEQEND
  8
gg1
  0
POLYLINE
  8
gg1
 62
1
 40
0.000000
 41
0.000000
 66
  1
  0
VERTEX
  8
gg1
 10
0.369000
 20
-0.136000
  0
VERTEX
  8
gg1
 10
0.389000
 20
-0.136000
  0
VERTEX
  8
gg1
 10
0.379000
 20
-0.136000
  0
VERTEX
  8
gg1
 10
0.379000
 20
-0.096000
  0
VERTEX
  8
gg1
 10
0.369000
 20
-0.096000
  0
SEQEND
  8
gg1
  0
POLYLINE
  8
gg1
 62
1
 40
0.000000
 41
0.000000
 66
  1
  0
VERTEX
  8
gg1
 10
0.419000
 20
-0.136000
  0
VERTEX
  8
gg1
 10
0.439000
 20
-0.136000
  0
VERTEX
  8
gg1
 10
0.429000
 20
-0.136000
  0
VERTEX
  8
gg1
 10
0.429000
 20
-0.076000
  0
VERTEX
  8
gg1
 10
0.419000
 20
-0.076000
  0
SEQEND
  8
gg1
  0
POLYLINE
  8
gg1
 62
1
 40
0.000000
 41
0.000000
 66
  1
  0
VERTEX
  8
gg1
 10
-0.064000
 20
0.304100
  0
VERTEX
  8
gg1
 10
-0.064000
 20
0.324100
  0
VERTEX
  8
gg1
 10
-0.064000
 20
0.314100
  0
VERTEX
  8
gg1
 10
-0.124000
 20
0.314100
  0
VERTEX
  8
gg1
 10
-0.114000
 20
0.304100
  0
SEQEND
  8
gg1
  0
POLYLINE
  8
gg1
 62
1
 40
0.000000
 41
0.000000
 66
  1
  0
VERTEX
  8
gg1
 10
-0.114000
 20
0.354000
  0
VERTEX
  8
gg1
 10
-0.124000
 20
0.364000
  0
VERTEX
  8
gg1
 10
-0.124000
 20
0.384000
  0
VERTEX
  8
gg1
 10
-0.114000
 20
0.394000
  0
VERTEX
  8
gg1
 10
-0.074000
 20
0.394000
  0
VERTEX
  8
gg1
 10
-0.064000
 20
0.384000
  0
VERTEX
  8
gg1
 10
-0.064000
 20
0.364000
  0
VERTEX
  8
gg1
 10
-0.074000
 20
0.354000
  0
VERTEX
  8
gg1
 10
-0.114000
 20
0.354000
  0
SEQEND
  8
gg1
  0
POLYLINE
  8
gg1
 62
1
 40
0.000000
 41
0.000000
 66
  1
  0
VERTEX
  8
gg1
 10
-0.114000
 20
0.414000
  0
VERTEX
  8
gg1
 10
-0.124000
 20
0.424000
  0
VERTEX
  8
gg1
 10
-0.124000
 20
0.444000
  0
VERTEX
  8
gg1
 10
-0.114000
 20
0.454000
  0
VERTEX
  8
gg1
 10
-0.074000
 20
0.454000
  0
VERTEX
  8
gg1
 10
-0.064000
 20
0.444000
  0
VERTEX
  8
gg1
 10
-0.064000
 20
0.424000
  0
VERTEX
  8
gg1
 10
-0.074000
 20
0.414000
  0
VERTEX
  8
gg1
 10
-0.114000
 20
0.414000
  0
SEQEND
  8
gg1
  0
POLYLINE
  8
gg1
 62
1
 40
0.000000
 41
0.000000
 66
  1
  0
VERTEX
  8
gg1
 10
-0.114000
 20
0.474000
  0
VERTEX
  8
gg1
 10
-0.124000
 20
0.484000
  0
VERTEX
  8
gg1
 10
-0.124000
 20
0.504000
  0
VERTEX
  8
gg1
 10
-0.114000
 20
0.514000
  0
VERTEX
  8
gg1
 10
-0.074000
 20
0.514000
  0
VERTEX
  8
gg1
 10
-0.064000
 20
0.504000
  0
VERTEX
  8
gg1
 10
-0.064000
 20
0.484000
  0
VERTEX
  8
gg1
 10
-0.074000
 20
0.474000
  0
VERTEX
  8
gg1
 10
-0.114000
 20
0.474000
  0
SEQEND
  8
gg1
  0
POLYLINE
  8
gg1
 62
1
 40
0.000000
 41
0.000000
 66
  1
  0
VERTEX
  8
gg1
 10
-0.064000
 20
0.534000
  0
VERTEX
  8
gg1
 10
-0.104000
 20
0.534000
  0
VERTEX
  8
gg1
 10
-0.104000
 20
0.544000
  0
VERTEX
  8
gg1
 10
-0.094000
 20
0.554000
  0
VERTEX
  8
gg1
 10
-0.064000
 20
0.554000
  0
VERTEX
  8
gg1
 10
-0.094000
 20
0.554000
  0
VERTEX
  8
gg1
 10
-0.104000
 20
0.564000
  0
VERTEX
  8
gg1
 10
-0.094000
 20
0.574000
  0
VERTEX
  8
gg1
 10
-0.064000
 20
0.574000
  0
SEQEND
  8
gg1
  0
POLYLINE
  8
gg1
 62
1
 40
0.000000
 41
0.000000
 66
  1
  0
VERTEX
  8
gg1
 10
-0.064000
 20
0.594000
  0
VERTEX
  8
gg1
 10
-0.064000
 20
0.614000
  0
VERTEX
  8
gg1
 10
-0.064000
 20
0.604000
  0
VERTEX
  8
gg1
 10
-0.104000
 20
0.604000
  0
VERTEX
  8
gg1
 10
-0.104000
 20
0.594000
  0
SEQEND
  8
gg1
  0
POLYLINE
  8
gg1
 62
1
 40
0.000000
 41
0.000000
 66
  1
  0
VERTEX
  8
gg1
 10
-0.064000
 20
0.643900
  0
VERTEX
  8
gg1
 10
-0.064000
 20
0.663900
  0
VERTEX
  8
gg1
 10
-0.064000
 20
0.653900
  0
VERTEX
  8
gg1
 10
-0.124000
 20
0.653900
  0
VERTEX
  8
gg1
 10
-0.124000
 20
0.643900
  0
SEQEND
  8
gg1
  0
ENDSEC
  0
EOF
